<svg width="16" height="16" viewBox="0 0 16 16" fill="none" xmlns="http://www.w3.org/2000/svg">
<path fill-rule="evenodd" clip-rule="evenodd" d="M8.00193 14.6666C10.9142 14.6656 13.3884 12.7976 14.2958 10.1965C14.536 9.50783 14.6663 8.76838 14.6663 7.99992C14.6663 7.23146 14.536 6.49201 14.2958 5.80334C13.3882 3.20154 10.913 1.33325 7.99967 1.33325C5.38113 1.33325 3.11643 2.84304 2.02634 5.03656C1.90349 5.28379 1.79549 5.53977 1.70354 5.80334C1.4633 6.49201 1.33301 7.23146 1.33301 7.99992C1.33301 8.76838 1.4633 9.50783 1.70354 10.1965C2.61098 12.7977 5.08532 14.6658 7.9978 14.6666C7.99918 14.6666 8.00055 14.6666 8.00193 14.6666ZM6.38915 2.91403C5.10207 3.32117 4.02575 4.20346 3.36647 5.35626H5.23626C5.49312 4.50208 5.87742 3.67804 6.38915 2.91403ZM4.94172 6.68959H2.82833C2.72262 7.10828 2.66634 7.54715 2.66634 7.99992C2.66634 8.45269 2.72262 8.89156 2.82833 9.31025H4.94172C4.81674 8.44153 4.81674 7.5583 4.94172 6.68959ZM6.29126 9.31025C6.14467 8.44335 6.14467 7.55649 6.29126 6.68959H9.7086C9.85519 7.55649 9.85519 8.44335 9.7086 9.31025H6.29126ZM5.23626 10.6436H3.36641C4.0254 11.796 5.10182 12.6785 6.38911 13.0857C5.8774 12.3218 5.49311 11.4977 5.23626 10.6436ZM9.61089 13.0855C10.1225 12.3216 10.5068 11.4977 10.7636 10.6436H12.6329C11.9741 11.7958 10.8979 12.6782 9.61089 13.0855ZM9.36 10.6436C9.0569 11.4892 8.60354 12.2931 7.99993 13.0137C7.39632 12.2931 6.94296 11.4892 6.63986 10.6436H9.36ZM11.0581 9.31025H13.171C13.2767 8.89156 13.333 8.45269 13.333 7.99992C13.333 7.54715 13.2767 7.10828 13.171 6.68959H11.0581C11.1831 7.5583 11.1831 8.44153 11.0581 9.31025ZM10.7636 5.35626H12.6329C11.9741 4.20407 10.8979 3.32166 9.61089 2.9143C10.1225 3.67823 10.5068 4.50218 10.7636 5.35626ZM9.36 5.35626H6.63986C6.94296 4.51062 7.39631 3.70677 7.99993 2.98611C8.60354 3.70677 9.0569 4.51062 9.36 5.35626Z" fill="#F03CC8"/>
</svg>
