<svg width="16" height="16" viewBox="0 0 16 16" fill="none" xmlns="http://www.w3.org/2000/svg">
<path d="M6.66667 11.9999C6.48257 11.9999 6.33333 12.1492 6.33333 12.3333C6.33333 12.5173 6.48257 12.6666 6.66667 12.6666H9.33333C9.51743 12.6666 9.66667 12.5173 9.66667 12.3333C9.66667 12.1492 9.51743 11.9999 9.33333 11.9999H6.66667Z" fill="#3C80F4"/>
<path fill-rule="evenodd" clip-rule="evenodd" d="M4 3.33325C4 2.22868 4.89543 1.33325 6 1.33325H10C11.1046 1.33325 12 2.22868 12 3.33325V12.6666C12 13.7712 11.1046 14.6666 10 14.6666H6C4.89543 14.6666 4 13.7712 4 12.6666V3.33325ZM6 2.66659C5.63181 2.66659 5.33333 2.96506 5.33333 3.33325V12.6666C5.33333 13.0348 5.63181 13.3333 6 13.3333H10C10.3682 13.3333 10.6667 13.0348 10.6667 12.6666V3.33325C10.6667 2.96506 10.3682 2.66659 10 2.66659C10 3.21887 9.55229 3.66659 9 3.66659H7C6.44772 3.66659 6 3.21887 6 2.66659Z" fill="#3C80F4"/>
</svg>
